<?xml version="1.0" encoding="UTF-8"?>
<!-- Generator: Adobe Illustrator 16.0.0, SVG Export Plug-In . SVG Version: 6.00 Build 0)  -->
<!DOCTYPE svg PUBLIC "-//W3C//DTD SVG 1.1 Tiny//EN" "http://www.w3.org/Graphics/SVG/1.1/DTD/svg11-tiny.dtd">
<svg version="1.1" baseProfile="tiny" id="Layer_1" xmlns="http://www.w3.org/2000/svg" xmlns:xlink="http://www.w3.org/1999/xlink" x="0px" y="0px" width="666px" height="202px" viewBox="0 0 666 202" xml:space="preserve">
<line fill="none" stroke="#000000" stroke-width="4" stroke-miterlimit="10" x1="17.901" y1="161.887" x2="99.33" y2="161.887"/>
<rect x="141.293" y="48.632" fill="#BDBEC1" stroke="#55646A" stroke-miterlimit="10" width="59.448" height="105.259"/>
<rect x="158.528" y="86.394" fill="none" width="24.978" height="25.77"/>
<text transform="matrix(1.0081 0 0 1 158.5283 109.9404)" font-family="'Cambria'" font-size="33.6989">N</text>
<rect x="346.613" y="48.632" fill="#BDBEC1" stroke="#55646A" stroke-miterlimit="10" width="59.449" height="105.259"/>
<rect x="363.848" y="86.394" fill="none" width="24.979" height="25.77"/>
<text transform="matrix(1.0081 0 0 1 363.8486 109.9404)" font-family="'Cambria'" font-size="33.6989">N</text>
<rect x="97.909" y="170.021" fill="#0E9FC9" stroke="#55646A" stroke-width="0.75" stroke-miterlimit="10" width="453.692" height="15.198"/>
<rect x="240.707" y="48.632" fill="#BDBEC1" stroke="#55646A" stroke-miterlimit="10" width="59.448" height="105.259"/>
<rect x="261.938" y="86.394" fill="none" width="24.978" height="25.77"/>
<text transform="matrix(1.0081 0 0 1 261.938 109.9404)" font-family="'Cambria'" font-size="33.6989">P</text>
<rect x="447.693" y="48.632" fill="#BDBEC1" stroke="#55646A" stroke-miterlimit="10" width="59.447" height="105.259"/>
<rect x="470.006" y="86.394" fill="none" width="24.979" height="25.77"/>
<text transform="matrix(1.0081 0 0 1 470.0059 109.9404)" font-family="'Cambria'" font-size="33.6989">P</text>
<line fill="none" stroke="#CE3133" stroke-width="4" stroke-miterlimit="10" x1="551.602" y1="161.887" x2="633.031" y2="161.887"/>
<rect x="99.33" y="17.89" fill="#F15A5A" stroke="#55646A" stroke-miterlimit="10" width="452.271" height="15.265"/>
<rect y="147.018" fill="none" width="12.239" height="25.771"/>
<text transform="matrix(1.0081 0 0 1 0 170.5645)" font-family="'Cambria'" font-size="33.6989">-</text>
<rect x="642.105" y="147.018" fill="none" width="23.895" height="37.004"/>
<text transform="matrix(1.0081 0 0 1 642.1055 170.5645)" font-family="'Cambria'" font-size="33.6989">+</text>
<rect x="116.765" y="96.454" width="6.761" height="32.724"/>
<polygon points="123.526,96.454 129.804,96.454 120.146,74.996 110.488,96.454 116.765,96.454 "/>
<rect x="525.074" y="96.456" fill="#CE3133" width="6.762" height="32.724"/>
<polygon fill="#CE3133" points="531.836,96.456 538.113,96.456 528.457,74.997 518.799,96.456 525.074,96.456 "/>
<rect x="34.337" y="132.691" fill="none" width="92.918" height="10.573"/>
<text transform="matrix(1.0081 0 0 1 34.3369 141.002)" font-family="'Cambria'" font-size="11.8937">F</text>
<text transform="matrix(1.0081 0 0 1 40.7705 141.002)" font-family="'Cambria'" font-size="11.8937">l</text>
<text transform="matrix(1.0081 0 0 1 44.0254 141.002)" font-family="'Cambria'" font-size="11.8937">u</text>
<text transform="matrix(1.0081 0 0 1 50.6465 141.002)" font-family="'Cambria'" font-size="11.8937">x</text>
<text transform="matrix(1.0081 0 0 1 56.1787 141.002)" font-family="'Cambria'" font-size="11.8937">o</text>
<text transform="matrix(1.0081 0 0 1 62.5425 141.002)" font-family="'Cambria'" font-size="11.8937"> </text>
<text transform="matrix(1.0081 0 0 1 65.1826 141.002)" font-family="'Cambria'" font-size="11.8937"> </text>
<text transform="matrix(1.0081 0 0 1 67.8228 141.002)" font-family="'Cambria'" font-size="11.8937">e</text>
<text transform="matrix(1.0081 0 0 1 73.6714 141.002)" font-family="'Cambria'" font-size="11.8937">l</text>
<text transform="matrix(1.0081 0 0 1 76.9263 141.002)" font-family="'Cambria'" font-size="11.8937">é</text>
<text transform="matrix(1.0081 0 0 1 82.7749 141.002)" font-family="'Cambria'" font-size="11.8937">t</text>
<text transform="matrix(1.0081 0 0 1 86.832 141.002)" font-family="'Cambria'" font-size="11.8937">r</text>
<text transform="matrix(1.0081 0 0 1 91.6152 141.002)" font-family="'Cambria'" font-size="11.8937">o</text>
<text transform="matrix(1.0081 0 0 1 97.979 141.002)" font-family="'Cambria'" font-size="11.8937">n</text>
<text transform="matrix(1.0081 0 0 1 104.6704 141.002)" font-family="'Cambria'" font-size="11.8937">s</text>
<rect x="535.36" y="132.691" fill="none" width="92.92" height="10.573"/>
<text transform="matrix(1.0081 0 0 1 535.3613 141.002)" fill="#CE3133" font-family="'Cambria'" font-size="11.8937">F</text>
<text transform="matrix(1.0081 0 0 1 541.7949 141.002)" fill="#CE3133" font-family="'Cambria'" font-size="11.8937">l</text>
<text transform="matrix(1.0081 0 0 1 545.0488 141.002)" fill="#CE3133" font-family="'Cambria'" font-size="11.8937">u</text>
<text transform="matrix(1.0081 0 0 1 551.6699 141.002)" fill="#CE3133" font-family="'Cambria'" font-size="11.8937">x</text>
<text transform="matrix(1.0081 0 0 1 557.2031 141.002)" fill="#CE3133" font-family="'Cambria'" font-size="11.8937">o</text>
<text transform="matrix(1.0081 0 0 1 563.5664 141.002)" fill="#CE3133" font-family="'Cambria'" font-size="11.8937"> </text>
<text transform="matrix(1.0081 0 0 1 566.207 141.002)" fill="#CE3133" font-family="'Cambria'" font-size="11.8937">c</text>
<text transform="matrix(1.0081 0 0 1 571.4922 141.002)" fill="#CE3133" font-family="'Cambria'" font-size="11.8937">a</text>
<text transform="matrix(1.0081 0 0 1 577.3477 141.002)" fill="#CE3133" font-family="'Cambria'" font-size="11.8937">l</text>
<text transform="matrix(1.0081 0 0 1 580.6016 141.002)" fill="#CE3133" font-family="'Cambria'" font-size="11.8937">o</text>
<text transform="matrix(1.0081 0 0 1 586.9648 141.002)" fill="#CE3133" font-family="'Cambria'" font-size="11.8937">r</text>
<rect x="272.906" y="4.8" fill="none" width="101.376" height="10.574"/>
<text transform="matrix(1.0081 0 0 1 272.9063 13.1108)" fill="#CE3133" font-family="'Cambria'" font-size="11.8937">Dissipação de Calor</text>
<rect x="276.879" y="189.77" fill="none" width="93.847" height="10.574"/>
<text transform="matrix(1.0081 0 0 1 276.8789 198.0801)" fill="#0E9FC9" font-family="'Cambria'" font-size="11.8937">A</text>
<text transform="matrix(1.0081 0 0 1 284.2612 198.0801)" fill="#0E9FC9" font-family="'Cambria'" font-size="11.8937">b</text>
<text transform="matrix(1.0081 0 0 1 290.8237 198.0801)" fill="#0E9FC9" font-family="'Cambria'" font-size="11.8937">s</text>
<text transform="matrix(1.0081 0 0 1 295.9756 198.0801)" fill="#0E9FC9" font-family="'Cambria'" font-size="11.8937">o</text>
<text transform="matrix(1.0081 0 0 1 302.3394 198.0801)" fill="#0E9FC9" font-family="'Cambria'" font-size="11.8937">r</text>
<text transform="matrix(1.0081 0 0 1 307.1221 198.0801)" fill="#0E9FC9" font-family="'Cambria'" font-size="11.8937">ç</text>
<text transform="matrix(1.0081 0 0 1 312.4087 198.0801)" fill="#0E9FC9" font-family="'Cambria'" font-size="11.8937">ã</text>
<text transform="matrix(1.0081 0 0 1 318.2632 198.0801)" fill="#0E9FC9" font-family="'Cambria'" font-size="11.8937">o</text>
<text transform="matrix(1.0081 0 0 1 324.627 198.0801)" fill="#0E9FC9" font-family="'Cambria'" font-size="11.8937"> </text>
<text transform="matrix(1.0081 0 0 1 327.2671 198.0801)" fill="#0E9FC9" font-family="'Cambria'" font-size="11.8937">d</text>
<text transform="matrix(1.0081 0 0 1 333.9175 198.0801)" fill="#0E9FC9" font-family="'Cambria'" font-size="11.8937">e</text>
<text transform="matrix(1.0081 0 0 1 339.7656 198.0801)" fill="#0E9FC9" font-family="'Cambria'" font-size="11.8937"> </text>
<text transform="matrix(1.0081 0 0 1 342.4063 198.0801)" fill="#0E9FC9" font-family="'Cambria'" font-size="11.8937">C</text>
<text transform="matrix(1.0081 0 0 1 349.1504 198.0801)" fill="#0E9FC9" font-family="'Cambria'" font-size="11.8937">a</text>
<text transform="matrix(1.0081 0 0 1 355.0039 198.0801)" fill="#0E9FC9" font-family="'Cambria'" font-size="11.8937">l</text>
<text transform="matrix(1.0081 0 0 1 358.2598 198.0801)" fill="#0E9FC9" font-family="'Cambria'" font-size="11.8937">o</text>
<text transform="matrix(1.0081 0 0 1 364.623 198.0801)" fill="#0E9FC9" font-family="'Cambria'" font-size="11.8937">r</text>
<rect x="442.363" y="154.287" fill="#C59937" stroke="#55646A" stroke-width="0.75" stroke-miterlimit="10" width="109.238" height="15.198"/>
<rect x="235.379" y="154.287" fill="#C59937" stroke="#55646A" stroke-width="0.75" stroke-miterlimit="10" width="174.847" height="15.198"/>
<rect x="97.909" y="154.287" fill="#C59937" stroke="#55646A" stroke-width="0.75" stroke-miterlimit="10" width="109.238" height="15.198"/>
<rect x="132.804" y="33.434" fill="#C59937" stroke="#55646A" stroke-width="0.75" stroke-miterlimit="10" width="174.847" height="15.198"/>
<rect x="339.952" y="33.434" fill="#C59937" stroke="#55646A" stroke-width="0.75" stroke-miterlimit="10" width="174.847" height="15.198"/>
<polygon fill="#FFFFFF" points="552.459,23.161 552.459,18.366 541.73,25.741 552.459,33.116 552.459,28.323 "/>
<polygon fill="#FFFFFF" points="98.33,27.697 98.33,32.492 109.059,25.117 98.33,17.741 98.33,22.534 "/>
<polygon fill="#FFFFFF" points="552.53,175.353 552.53,170.558 541.802,177.933 552.53,185.309 552.53,180.516 "/>
<polygon fill="#FFFFFF" points="96.401,180.89 96.401,185.685 107.13,178.31 96.401,170.934 96.401,175.727 "/>
<rect x="283.389" y="20.454" fill="none" width="78.827" height="10.574"/>
<text transform="matrix(1.0081 0 0 1 283.3887 28.7642)" font-family="'Cambria'" font-size="11.8937">C</text>
<text transform="matrix(1.0081 0 0 1 290.1328 28.7642)" font-family="'Cambria'" font-size="11.8937">h</text>
<text transform="matrix(1.0081 0 0 1 296.748 28.7642)" font-family="'Cambria'" font-size="11.8937">a</text>
<text transform="matrix(1.0081 0 0 1 302.6021 28.7642)" font-family="'Cambria'" font-size="11.8937">p</text>
<text transform="matrix(1.0081 0 0 1 309.27 28.7642)" font-family="'Cambria'" font-size="11.8937">a</text>
<text transform="matrix(1.0081 0 0 1 315.1245 28.7642)" font-family="'Cambria'" font-size="11.8937"> </text>
<text transform="matrix(1.0081 0 0 1 317.7646 28.7642)" font-family="'Cambria'" font-size="11.8937">i</text>
<text transform="matrix(1.0081 0 0 1 321.0957 28.7642)" font-family="'Cambria'" font-size="11.8937">s</text>
<text transform="matrix(1.0081 0 0 1 326.2476 28.7642)" font-family="'Cambria'" font-size="11.8937">o</text>
<text transform="matrix(1.0081 0 0 1 332.6113 28.7642)" font-family="'Cambria'" font-size="11.8937">l</text>
<text transform="matrix(1.0081 0 0 1 335.8662 28.7642)" font-family="'Cambria'" font-size="11.8937">a</text>
<text transform="matrix(1.0081 0 0 1 341.7207 28.7642)" font-family="'Cambria'" font-size="11.8937">n</text>
<text transform="matrix(1.0081 0 0 1 348.4121 28.7642)" font-family="'Cambria'" font-size="11.8937">t</text>
<text transform="matrix(1.0081 0 0 1 352.3633 28.7642)" font-family="'Cambria'" font-size="11.8937">e</text>
<rect x="282.999" y="173.021" fill="none" width="78.827" height="10.574"/>
<text transform="matrix(1.0081 0 0 1 282.999 181.332)" font-family="'Cambria'" font-size="11.8937">C</text>
<text transform="matrix(1.0081 0 0 1 289.7432 181.332)" font-family="'Cambria'" font-size="11.8937">h</text>
<text transform="matrix(1.0081 0 0 1 296.3584 181.332)" font-family="'Cambria'" font-size="11.8937">a</text>
<text transform="matrix(1.0081 0 0 1 302.2124 181.332)" font-family="'Cambria'" font-size="11.8937">p</text>
<text transform="matrix(1.0081 0 0 1 308.8804 181.332)" font-family="'Cambria'" font-size="11.8937">a</text>
<text transform="matrix(1.0081 0 0 1 314.7349 181.332)" font-family="'Cambria'" font-size="11.8937"> </text>
<text transform="matrix(1.0081 0 0 1 317.375 181.332)" font-family="'Cambria'" font-size="11.8937">i</text>
<text transform="matrix(1.0081 0 0 1 320.7061 181.332)" font-family="'Cambria'" font-size="11.8937">s</text>
<text transform="matrix(1.0081 0 0 1 325.8579 181.332)" font-family="'Cambria'" font-size="11.8937">o</text>
<text transform="matrix(1.0081 0 0 1 332.2217 181.332)" font-family="'Cambria'" font-size="11.8937">l</text>
<text transform="matrix(1.0081 0 0 1 335.4766 181.332)" font-family="'Cambria'" font-size="11.8937">a</text>
<text transform="matrix(1.0081 0 0 1 341.3301 181.332)" font-family="'Cambria'" font-size="11.8937">n</text>
<text transform="matrix(1.0081 0 0 1 348.0215 181.332)" font-family="'Cambria'" font-size="11.8937">t</text>
<text transform="matrix(1.0081 0 0 1 351.9736 181.332)" font-family="'Cambria'" font-size="11.8937">e</text>
<rect x="203.137" y="191.513" fill="#0E9FC9" width="4.132" height="9.339"/>
<polygon fill="#0E9FC9" points="207.269,191.513 211.106,191.513 205.204,185.39 199.3,191.513 203.137,191.513 "/>
<rect x="145.13" y="191.513" fill="#0E9FC9" width="4.132" height="9.339"/>
<polygon fill="#0E9FC9" points="149.262,191.513 153.099,191.513 147.197,185.39 141.293,191.513 145.13,191.513 "/>
<rect x="442" y="191.929" fill="#0E9FC9" width="4.132" height="9.339"/>
<polygon fill="#0E9FC9" points="446.132,191.929 449.969,191.929 444.066,185.806 438.163,191.929 442,191.929 "/>
<rect x="496.637" y="191.224" fill="#0E9FC9" width="4.133" height="9.339"/>
<polygon fill="#0E9FC9" points="500.77,191.224 504.605,191.224 498.703,185.101 492.801,191.224 496.637,191.224 "/>
<rect x="449.685" y="6.123" fill="#F15A5A" width="4.133" height="9.339"/>
<polygon fill="#F15A5A" points="453.817,6.123 457.653,6.123 451.751,0 445.849,6.123 449.685,6.123 "/>
<rect x="504.322" y="6.418" fill="#F15A5A" width="4.132" height="9.339"/>
<polygon fill="#F15A5A" points="508.454,6.418 512.291,6.418 506.389,0.295 500.485,6.418 504.322,6.418 "/>
<rect x="202.385" y="6.123" fill="#F15A5A" width="4.133" height="9.339"/>
<polygon fill="#F15A5A" points="206.518,6.123 210.354,6.123 204.451,0 198.549,6.123 202.385,6.123 "/>
<rect x="141.379" y="6.123" fill="#F15A5A" width="4.131" height="9.339"/>
<polygon fill="#F15A5A" points="145.51,6.123 149.348,6.123 143.445,0 137.541,6.123 141.379,6.123 "/>
<rect x="177.51" y="36.746" fill="none" width="90.92" height="10.574"/>
<text transform="matrix(1.0081 0 0 1 177.5098 45.0566)" font-family="'Cambria'" font-size="11.8937">M</text>
<text transform="matrix(1.0081 0 0 1 187.2861 45.0566)" font-family="'Cambria'" font-size="11.8937">a</text>
<text transform="matrix(1.0081 0 0 1 193.1401 45.0566)" font-family="'Cambria'" font-size="11.8937">l</text>
<text transform="matrix(1.0081 0 0 1 196.395 45.0566)" font-family="'Cambria'" font-size="11.8937">h</text>
<text transform="matrix(1.0081 0 0 1 203.0103 45.0566)" font-family="'Cambria'" font-size="11.8937">a</text>
<text transform="matrix(1.0081 0 0 1 208.8647 45.0566)" font-family="'Cambria'" font-size="11.8937"> </text>
<text transform="matrix(1.0081 0 0 1 211.5049 45.0566)" font-family="'Cambria'" font-size="11.8937">c</text>
<text transform="matrix(1.0081 0 0 1 216.7915 45.0566)" font-family="'Cambria'" font-size="11.8937">o</text>
<text transform="matrix(1.0081 0 0 1 223.1553 45.0566)" font-family="'Cambria'" font-size="11.8937">n</text>
<text transform="matrix(1.0081 0 0 1 229.8467 45.0566)" font-family="'Cambria'" font-size="11.8937">d</text>
<text transform="matrix(1.0081 0 0 1 236.4971 45.0566)" font-family="'Cambria'" font-size="11.8937">u</text>
<text transform="matrix(1.0081 0 0 1 243.1182 45.0566)" font-family="'Cambria'" font-size="11.8937">t</text>
<text transform="matrix(1.0081 0 0 1 247.0698 45.0566)" font-family="'Cambria'" font-size="11.8937">o</text>
<text transform="matrix(1.0081 0 0 1 253.4336 45.0566)" font-family="'Cambria'" font-size="11.8937">r</text>
<text transform="matrix(1.0081 0 0 1 258.1875 45.0566)" font-family="'Cambria'" font-size="11.8937">a</text>
<rect x="381.915" y="36.746" fill="none" width="90.92" height="10.574"/>
<text transform="matrix(1.0081 0 0 1 381.915 45.0566)" font-family="'Cambria'" font-size="11.8937">M</text>
<text transform="matrix(1.0081 0 0 1 391.6914 45.0566)" font-family="'Cambria'" font-size="11.8937">a</text>
<text transform="matrix(1.0081 0 0 1 397.5449 45.0566)" font-family="'Cambria'" font-size="11.8937">l</text>
<text transform="matrix(1.0081 0 0 1 400.8008 45.0566)" font-family="'Cambria'" font-size="11.8937">h</text>
<text transform="matrix(1.0081 0 0 1 407.416 45.0566)" font-family="'Cambria'" font-size="11.8937">a</text>
<text transform="matrix(1.0081 0 0 1 413.2695 45.0566)" font-family="'Cambria'" font-size="11.8937"> </text>
<text transform="matrix(1.0081 0 0 1 415.9102 45.0566)" font-family="'Cambria'" font-size="11.8937">c</text>
<text transform="matrix(1.0081 0 0 1 421.1973 45.0566)" font-family="'Cambria'" font-size="11.8937">o</text>
<text transform="matrix(1.0081 0 0 1 427.5605 45.0566)" font-family="'Cambria'" font-size="11.8937">n</text>
<text transform="matrix(1.0081 0 0 1 434.252 45.0566)" font-family="'Cambria'" font-size="11.8937">d</text>
<text transform="matrix(1.0081 0 0 1 440.9023 45.0566)" font-family="'Cambria'" font-size="11.8937">u</text>
<text transform="matrix(1.0081 0 0 1 447.5234 45.0566)" font-family="'Cambria'" font-size="11.8937">t</text>
<text transform="matrix(1.0081 0 0 1 451.4746 45.0566)" font-family="'Cambria'" font-size="11.8937">o</text>
<text transform="matrix(1.0081 0 0 1 457.8389 45.0566)" font-family="'Cambria'" font-size="11.8937">r</text>
<text transform="matrix(1.0081 0 0 1 462.5928 45.0566)" font-family="'Cambria'" font-size="11.8937">a</text>
<rect x="274.427" y="156.601" fill="none" width="90.92" height="10.574"/>
<text transform="matrix(1.0081 0 0 1 274.4268 164.9111)" font-family="'Cambria'" font-size="11.8937">M</text>
<text transform="matrix(1.0081 0 0 1 284.2031 164.9111)" font-family="'Cambria'" font-size="11.8937">a</text>
<text transform="matrix(1.0081 0 0 1 290.0571 164.9111)" font-family="'Cambria'" font-size="11.8937">l</text>
<text transform="matrix(1.0081 0 0 1 293.312 164.9111)" font-family="'Cambria'" font-size="11.8937">h</text>
<text transform="matrix(1.0081 0 0 1 299.9272 164.9111)" font-family="'Cambria'" font-size="11.8937">a</text>
<text transform="matrix(1.0081 0 0 1 305.7817 164.9111)" font-family="'Cambria'" font-size="11.8937"> </text>
<text transform="matrix(1.0081 0 0 1 308.4219 164.9111)" font-family="'Cambria'" font-size="11.8937">c</text>
<text transform="matrix(1.0081 0 0 1 313.7085 164.9111)" font-family="'Cambria'" font-size="11.8937">o</text>
<text transform="matrix(1.0081 0 0 1 320.0723 164.9111)" font-family="'Cambria'" font-size="11.8937">n</text>
<text transform="matrix(1.0081 0 0 1 326.7637 164.9111)" font-family="'Cambria'" font-size="11.8937">d</text>
<text transform="matrix(1.0081 0 0 1 333.4141 164.9111)" font-family="'Cambria'" font-size="11.8937">u</text>
<text transform="matrix(1.0081 0 0 1 340.0352 164.9111)" font-family="'Cambria'" font-size="11.8937">t</text>
<text transform="matrix(1.0081 0 0 1 343.9863 164.9111)" font-family="'Cambria'" font-size="11.8937">o</text>
<text transform="matrix(1.0081 0 0 1 350.3506 164.9111)" font-family="'Cambria'" font-size="11.8937">r</text>
<text transform="matrix(1.0081 0 0 1 355.1045 164.9111)" font-family="'Cambria'" font-size="11.8937">a</text>
</svg>